<svg xmlns="http://www.w3.org/2000/svg" width="164" height="41"><g fill-rule="evenodd"><path d="m130 22-1.2-3H123l-1 3h-4l6.3-15h3.5l6.2 15h-4zm-4-11-2 5.2h3.8L126 11zm-9 5.1a6 6 0 0 1-.5 2.4 5.2 5.2 0 0 1-1.3 1.9c-.5.5-1.2.9-2 1.2a8 8 0 0 1-2.7.4c-1 0-2-.1-2.7-.4a6 6 0 0 1-2-1.2 5.2 5.2 0 0 1-1.3-1.9c-.3-.7-.5-1.5-.5-2.4V7h3.6v8.8c0 .4 0 .8.2 1.1l.5 1c.2.3.5.5.9.7l1.3.2c.5 0 1 0 1.3-.2a2.4 2.4 0 0 0 1.4-1.7l.1-1V7h3.7v9.1zm-16 4.7-2.6.9c-1 .2-2 .3-3.2.3-1.2 0-2.3-.2-3.3-.5-1-.4-1.9-1-2.6-1.6a7 7 0 0 1-1.7-2.3c-.4-1-.6-2-.6-3.1 0-1.2.2-2.2.6-3.1A6.9 6.9 0 0 1 89.3 9 7.7 7.7 0 0 1 92 7.5a10.3 10.3 0 0 1 6.5 0c1 .4 1.9.8 2.5 1.4l-2.3 2.5a4 4 0 0 0-1.4-1 5 5 0 0 0-3.7 0 4.2 4.2 0 0 0-1.4.9 4.2 4.2 0 0 0-1 1.4 4.7 4.7 0 0 0-.3 1.8c0 .6.1 1.3.3 1.8a3.9 3.9 0 0 0 2.4 2.3c.5.3 1.2.4 2 .4l1.1-.1c.4 0 .8-.2 1-.3V16h-2.8v-2.8h6.2v7.6zm63-6.3c0 1.3-.2 2.4-.7 3.4a6.9 6.9 0 0 1-2 2.3 8 8 0 0 1-2.7 1.4 11 11 0 0 1-3 .4H150V7h5.4c1 0 2.1.1 3.2.4a7.9 7.9 0 0 1 2.7 1.2c.8.6 1.5 1.3 2 2.3.5 1 .7 2.1.7 3.6zm-3.8 0c0-.9-.1-1.6-.4-2.1a3.5 3.5 0 0 0-1-1.4 4.4 4.4 0 0 0-1.7-.7 7.7 7.7 0 0 0-1.8-.2h-1.8v8.8h1.8l1.8-.3a4.4 4.4 0 0 0 1.6-.7 3.6 3.6 0 0 0 1.1-1.3c.3-.6.4-1.3.4-2.1zm-75.2 0c0 1.3-.2 2.4-.7 3.4a6.9 6.9 0 0 1-2 2.3 8 8 0 0 1-2.7 1.4 11 11 0 0 1-3 .4H71V7h5.4c1 0 2.1.1 3.2.4a7.9 7.9 0 0 1 2.7 1.2c.8.6 1.5 1.3 2 2.3.5 1 .7 2.1.7 3.6zm-3.8 0c0-.9-.1-1.6-.4-2.1a3.5 3.5 0 0 0-1-1.4 4.4 4.4 0 0 0-1.7-.7 7.7 7.7 0 0 0-1.8-.2h-1.8v8.8h1.8l1.8-.3a4.4 4.4 0 0 0 1.6-.7 3.6 3.6 0 0 0 1.1-1.3c.3-.6.4-1.3.4-2.1zM66 22l-1.2-3H59l-1 3h-4l6.3-15h3.5L70 22h-4zm-4-11-2 5.2h3.8L62 11zm81.9 11-3.2-6h-1.2v6H136V7h5.6c.7 0 1.4 0 2 .2.7.2 1.3.4 1.9.8a3.9 3.9 0 0 1 1.2 1.4c.4.6.5 1.3.5 2.1a4 4 0 0 1-.8 2.6c-.5.7-1.3 1.2-2.2 1.5L148 22h-4.1zm-.2-10.4c0-.4 0-.6-.2-.9a1.5 1.5 0 0 0-.6-.5 2.4 2.4 0 0 0-.7-.2 5.5 5.5 0 0 0-.9 0h-1.8v3.4h2.6l.8-.3.6-.6.2-.9zM55 37.9V29h1v4h4.8v-4h1V38h-1v-4H56v4h-1zm13 .1c-2.5 0-4.2-2-4.2-4.5 0-2.4 1.7-4.5 4.3-4.5 2.6 0 4.3 2 4.3 4.5 0 2.4-1.8 4.5-4.3 4.5zm0-1c2 0 3.4-1.5 3.4-3.5S70 29.9 68 29.9c-2 0-3.3 1.6-3.3 3.6s1.4 3.6 3.3 3.6zm6.4.9V29h1l3 4.8 3.1-4.8h1V38h-1v-7.1l-3 4.7h-.1l-3-4.7v7h-1zm10.4 0V29H91v1h-5.1v3h4.6v.8h-4.6v3H91v1h-6.2z"/><path fill-rule="nonzero" d="M2.8 14c.8 4.3 2.3 8.4 4.7 12.2a39 39 0 0 0 13 12.3 39 39 0 0 0 13-12.3c2.4-3.8 3.9-7.9 4.7-12.2.5-2.7.6-4.8.6-8A45.5 45.5 0 0 0 2.2 6c0 3.2.1 5.3.6 8zM20.5 0C26.9 0 34.6 1.5 41 4.7c0 7 0 24.4-20.5 36.3C-.1 29.1 0 11.7 0 4.7 6.4 1.5 14 0 20.5 0z"/><path d="M20.2 27 33 11.3c-1-.6-1.8-.2-2.2.2L20 21.5l-4-4.3c-1.9-2-4.5-.5-5.1 0l9.2 9.8"/></g></svg>